<svg width="228" height="233" viewBox="0 0 228 233" fill="none" xmlns="http://www.w3.org/2000/svg">
<path d="M10.2746 39.1352C9.55918 35.7085 10.5966 34.0965 10.5376 29.7619ZM10.2746 39.1352C10.7082 37.0289 10.6169 34.6135 10.5376 29.7619ZM15.0801 44.8901C14.735 38.8759 16.1117 30.8684 15.6135 25.5228ZM15.0801 44.8901C15.1782 38.7107 15.0426 30.6302 15.6135 25.5228ZM19.8599 51.273C21.2946 40.039 19.743 27.6729 20.6934 21.2885ZM19.8599 51.273C20.0293 44.7676 20.1456 37.9017 20.6934 21.2885ZM24.6654 57.028C25.9408 48.2957 23.8201 39.3856 25.7523 17.6781ZM24.6654 57.028C24.7955 43.6725 24.7823 29.7968 25.7523 17.6781ZM29.4701 62.7918C29.5804 48.5064 29.4669 35.9351 30.7117 17.8141ZM29.4701 62.7918C29.8588 53.0312 30.0993 43.1186 30.7117 17.8141ZM34.2709 68.5507C34.6025 55.4325 34.9594 44.8653 35.629 19.1979ZM34.2709 68.5507C34.4778 55.4469 35.5646 42.3984 35.629 19.1979ZM39.0764 74.3056C38.7893 62.3877 40.1269 51.6547 40.4385 24.9577ZM39.0764 74.3056C39.9208 57.2686 40.1188 40.2659 40.4385 24.9577ZM43.8562 80.6885C43.716 66.8048 44.6517 50.4605 45.2393 30.7166ZM43.8562 80.6885C43.9272 64.2682 44.6228 46.8126 45.2393 30.7166ZM48.6617 86.4435C50.046 73.4153 48.1554 61.411 50.0238 37.0956ZM48.6617 86.4435C48.7707 75.3458 49.8574 64.1576 50.0238 37.0956ZM53.4625 92.2024C52.9071 82.5935 53.7052 70.6577 54.8246 42.8545ZM53.4625 92.2024C53.5223 78.6625 53.3712 64.3026 54.8246 42.8545ZM58.2671 97.9662C58.1903 79.0318 57.5956 62.3463 59.6253 48.6134ZM58.2671 97.9662C59.1127 79.6018 58.9546 60.3708 59.6253 48.6134ZM63.0727 103.721C63.3831 92.4079 64.4177 79.2167 64.4308 54.3684ZM63.0727 103.721C63.551 86.0089 63.9404 69.8019 64.4308 54.3684ZM67.8524 110.104C68.4878 93.2241 68.5961 78.6411 69.2355 60.1321ZM67.8524 110.104C67.7367 95.7876 68.5328 81.1522 69.2355 60.1321ZM72.641 116.488C73.121 104.063 73.3881 90.9745 74.0201 66.5111ZM72.641 116.488C72.6229 100.667 73.9302 84.9851 74.0201 66.5111ZM77.6125 115.999C78.2249 104.298 79.1998 91.1319 78.8208 72.27ZM77.6125 115.999C78.3215 102.714 79.0689 88.1267 78.8208 72.27ZM82.6924 111.765C82.4289 99.4227 83.0106 85.9517 83.6216 78.0289ZM82.6924 111.765C83.5329 103.021 82.9888 93.3863 83.6216 78.0289ZM87.7684 107.525C87.5634 102.244 87.8075 96.6474 88.4223 83.7879ZM87.7684 107.525C87.3713 98.5536 88.2333 89.4523 88.4223 83.7879ZM92.9365 100.161C92.7087 97.9719 92.8258 97.2197 93.1444 92.6691ZM92.9365 100.161C92.7828 98.6141 93.2473 97.3233 93.1444 92.6691ZM74.9575 111.365C72.0398 111.794 69.7023 111.782 68.1443 111.18ZM74.9575 111.365C73.1428 111.276 71.5689 111.019 68.1443 111.18ZM80.6734 106.523C75.7931 105.755 70.8079 106.611 63.9416 106.066ZM80.6734 106.523C75.9942 106.632 70.508 106.706 63.9416 106.066ZM91.3487 101.816C85.4426 100.953 78.7688 100.467 59.7437 100.948ZM91.3487 101.816C84.0806 102.098 75.1915 101.248 59.7437 100.948ZM93.3441 96.871C82.6407 97.6054 73.2904 97.3316 55.5409 95.8339ZM93.3441 96.871C78.8279 96.7296 64.2327 95.9499 55.5409 95.8339ZM91.004 91.8064C82.3807 90.1699 74.2797 92.4517 51.343 90.7158ZM91.004 91.8064C76.6551 91.5748 61.589 90.4737 51.343 90.7158ZM86.8013 86.6922C71.3382 85.9606 57.7695 87.3551 47.1403 85.6016ZM86.8013 86.6922C76.999 86.1299 67.3161 86.1963 47.1403 85.6016ZM82.6034 81.5741C71.0189 81.7203 59.8893 81.1742 42.9424 80.4834ZM82.6034 81.5741C71.2161 81.0959 58.8106 81.1705 42.9424 80.4834ZM78.4055 76.4559C67.1697 77.955 56.7276 77.0413 38.7397 75.3692ZM78.4055 76.4559C62.2454 75.9622 47.1987 75.6133 38.7397 75.3692ZM74.2027 71.3417C60.3846 71.4952 44.9787 71.444 34.5417 70.2511ZM74.2027 71.3417C65.7183 71.0863 58.4798 70.6556 34.5417 70.2511ZM70.0048 66.2236C59.3125 66.0267 51.0737 65.9641 30.339 65.1369ZM70.0048 66.2236C60.5451 66.6227 50.5025 66.2676 30.339 65.1369ZM65.8021 61.1094C54.5563 60.7161 41.3129 59.7139 26.1411 60.0187ZM65.8021 61.1094C56.7068 61.3845 46.7841 60.202 26.1411 60.0187ZM61.6042 55.9912C49.6943 54.8624 37.6854 54.9803 21.9432 54.9006ZM61.6042 55.9912C49.6657 56.0184 37.4008 55.2809 21.9432 54.9006ZM57.3975 50.8722C44.0804 50.0848 29.3922 50.1262 17.7405 49.7864ZM57.3975 50.8722C48.2406 50.8749 40.0128 50.6979 17.7405 49.7864ZM53.1996 45.7541C37.4514 44.4661 21.526 44.8212 13.5425 44.6682ZM53.1996 45.7541C43.8993 45.6006 35.0896 44.7493 13.5425 44.6682ZM48.9969 40.6399C34.8741 39.0319 20.4669 40.5794 9.33982 39.554ZM48.9969 40.6399C36.0807 40.7575 23.3952 40.4494 9.33982 39.554ZM44.799 35.5217C33.0793 36.516 19.0263 35.5054 5.1419 34.4359ZM44.799 35.5217C29.3136 35.6092 14.0234 34.7747 5.1419 34.4359ZM40.5963 30.4075C28.9933 30.0192 18.4702 30.2563 6.51835 29.4696ZM40.5963 30.4075C27.4675 30.0381 13.6252 30.1227 6.51835 29.4696ZM36.3983 25.2894C30.8733 24.0856 22.9273 23.9096 9.13279 24.5449ZM36.3983 25.2894C29.1068 25.6305 21.94 24.2345 9.13279 24.5449ZM32.2004 20.1712C27.5014 19.124 23.0386 20.5419 14.8448 19.6978ZM32.2004 20.1712C27.7245 20.7265 24.0484 19.7131 14.8448 19.6978Z" stroke="#FAB005" stroke-linecap="round"/>
<path d="M8.75456 29.4928C11.6418 25.5228 15.6002 23.8113 20.9497 19.3859M8.75456 29.4928C12.1642 27.3545 14.7259 24.7866 20.9497 19.3859M8.75456 29.4928C4.91578 32.739 4.79918 36.0707 7.66701 40.6898M8.75456 29.4928C4.72469 34.2076 4.66062 34.8672 7.66701 40.6898M20.9497 19.3859C24.8773 14.9985 29.1108 17.2565 32.0621 20.472M20.9497 19.3859C24.2743 15.3123 30.0071 17.007 32.0621 20.472M32.0621 20.472C51.3752 44.2333 70.9019 67.7448 90.9821 92.7224M32.0621 20.472C52.635 47.4515 75.1737 73.7803 90.9821 92.7224M90.9821 92.7224C94.4719 96.4702 93.6387 101.286 89.8898 103.923M90.9821 92.7224C94.4841 96.2095 94.3436 100.24 89.8898 103.923M89.8898 103.923C85.8623 107.253 82.0075 110.982 77.6946 114.03M89.8898 103.923C87.2109 106.791 83.5109 109.606 77.6946 114.03M77.6946 114.03C72.5388 117.187 68.7911 116.549 66.587 112.94M77.6946 114.03C73.6034 119.241 69.7865 115.505 66.587 112.94M66.587 112.94C51.1648 94.2847 34.0272 74.4708 7.66701 40.6898M66.587 112.94C53.1263 95.9912 39.1443 78.5603 7.66701 40.6898" stroke="#343A40" stroke-width="2" stroke-linecap="round"/>
<path d="M138.096 144.605C137.868 140.063 137.686 136.995 138.359 135.232ZM138.096 144.605C138.289 142.666 138.025 139.488 138.359 135.232ZM142.902 150.36C143.379 143.316 142.983 136.64 143.435 130.993ZM142.902 150.36C143.049 143.266 143.003 137.344 143.435 130.993ZM147.682 156.743C146.205 147.727 147.96 140.587 148.515 126.758ZM147.682 156.743C148.131 147.086 147.839 138.48 148.515 126.758ZM152.487 162.498C153.768 149.313 154.477 136.973 153.574 123.148ZM152.487 162.498C152.143 150.943 153.444 139.634 153.574 123.148ZM157.292 168.262C157.118 151.826 157.852 134.241 158.533 123.284ZM157.292 168.262C157.55 156.078 157.725 143.259 158.533 123.284ZM162.092 174.021C162.931 159.86 161.947 144.459 163.451 124.668ZM162.092 174.021C162.557 159.757 163.295 144.361 163.451 124.668ZM166.898 179.776C168.181 166.791 168.656 154.242 168.26 130.428ZM166.898 179.776C168.255 165.897 168.299 152.062 168.26 130.428ZM171.678 186.158C172.33 169.289 171.668 151.429 173.061 136.187ZM171.678 186.158C172.531 169.171 171.777 152.625 173.061 136.187ZM176.483 191.913C176.795 177.639 178.09 164.757 177.845 142.565ZM176.483 191.913C176.833 173.256 176.793 152.723 177.845 142.565ZM181.284 197.672C180.304 187.218 181.378 175.758 182.646 148.324ZM181.284 197.672C181.65 182.382 182.462 166.043 182.646 148.324ZM186.089 203.436C187.285 187.992 186.709 171.064 187.447 154.083ZM186.089 203.436C187.023 189.147 187.266 175.261 187.447 154.083ZM190.894 209.191C191.451 191.034 192.182 172.676 192.252 159.838ZM190.894 209.191C191.434 192.204 191.681 174.749 192.252 159.838ZM195.674 215.574C196.662 197.374 197.628 177.996 197.057 165.602ZM195.674 215.574C195.93 204.548 196.047 193.962 197.057 165.602ZM200.463 221.958C201.034 212.579 200.101 201.237 201.842 171.981ZM200.463 221.958C200.993 205.254 200.505 189.458 201.842 171.981ZM205.434 221.469C205.667 207.147 207.412 194.354 206.642 177.74ZM205.434 221.469C205.83 204.965 205.615 188.361 206.642 177.74ZM210.514 217.234C209.198 208.701 212.163 200.299 211.443 183.499ZM210.514 217.234C211.151 206.961 210.866 197.015 211.443 183.499ZM215.59 212.995C214.052 208.196 216.04 202.562 216.244 189.258ZM215.59 212.995C215.288 208.264 215.801 203.382 216.244 189.258ZM220.758 205.631C221.363 203.213 221.254 200.165 220.966 198.139ZM220.758 205.631C220.657 202.682 220.806 200.423 220.966 198.139ZM202.779 216.835C201.593 216.257 199.819 215.932 195.966 216.65ZM202.779 216.835C201.005 217.14 199.058 216.554 195.966 216.65ZM208.495 211.993C204.218 212.585 200.055 210.552 191.763 211.536ZM208.495 211.993C202.133 211.24 195.978 211.763 191.763 211.536ZM219.17 207.286C208.977 207.032 195.852 206.392 187.565 206.418ZM219.17 207.286C210.542 206.835 200.496 207.008 187.565 206.418ZM221.166 202.341C209.587 202.11 199.685 202.488 183.363 201.304ZM221.166 202.341C211.968 201.771 203.131 202.334 183.363 201.304ZM218.826 197.276C204.981 197.525 190.052 196.1 179.165 196.186ZM218.826 197.276C203.296 197.044 187.945 196.39 179.165 196.186ZM214.623 192.162C200.939 191.565 188.966 191.451 174.962 191.071ZM214.623 192.162C206.507 192.014 198.36 192.045 174.962 191.071ZM210.425 187.044C196.676 187.302 185.799 186.741 170.764 185.953ZM210.425 187.044C195.096 186.379 180.619 186.334 170.764 185.953ZM206.227 181.926C191.282 179.851 176.512 182.322 166.561 180.839ZM206.227 181.926C191.222 181.47 175.509 181.042 166.561 180.839ZM202.024 176.812C190.996 176.489 182.221 176.919 162.363 175.721ZM202.024 176.812C187.77 176.292 173.23 175.62 162.363 175.721ZM197.826 171.693C189.301 171.545 179.556 171.663 158.161 170.607ZM197.826 171.693C186.57 171.366 173.931 171.124 158.161 170.607ZM193.624 166.579C179.375 166.264 166.522 164.963 153.963 165.489ZM193.624 166.579C181.885 166.044 168.886 165.43 153.963 165.489ZM189.426 161.461C176.623 161.679 165.853 160.471 149.765 160.37ZM189.426 161.461C174.219 160.266 159.212 160.694 149.765 160.37ZM185.219 156.342C175.639 155.62 168.288 156.528 145.562 155.256ZM185.219 156.342C171.569 156.121 158.229 155.434 145.562 155.256ZM181.021 151.224C165.335 150.337 152.447 149.397 141.364 150.138ZM181.021 151.224C168.235 150.773 154.983 150.627 141.364 150.138ZM176.819 146.11C165.039 145.229 152.466 144.99 137.161 145.024ZM176.819 146.11C164.242 145.768 151.141 144.931 137.161 145.024ZM172.621 140.992C157.965 139.882 145.572 141.596 132.964 139.906ZM172.621 140.992C158.82 140.379 144.602 140.289 132.964 139.906ZM168.418 135.877C159.117 135.053 151.732 135.714 134.34 134.939ZM168.418 135.877C155.746 135.841 143.377 135.804 134.34 134.939ZM164.22 130.759C158.74 131.087 151.926 131.542 136.954 130.015ZM164.22 130.759C155.641 130.073 147.933 130.986 136.954 130.015ZM160.022 125.641C153.838 125.736 147.339 125.493 142.666 125.168ZM160.022 125.641C154.72 125.773 148.081 124.878 142.666 125.168Z" stroke="#FAB005" stroke-linecap="round"/>
<path d="M136.576 134.963C139.89 132.038 144.692 126.587 148.771 124.856M136.576 134.963C140.793 131.403 145.072 127.8 148.771 124.856M136.576 134.963C132.621 137.731 131.707 141.837 135.489 146.16M136.576 134.963C132.551 136.996 131.54 142.873 135.489 146.16M148.771 124.856C152.409 122.052 156.342 122.091 159.884 125.942M148.771 124.856C151.978 120.726 155.414 121.809 159.884 125.942M159.884 125.942C177.399 146.583 195.33 168.562 218.804 198.192M159.884 125.942C181.109 151.596 202.234 176.201 218.804 198.192M218.804 198.192C221 202.421 222.828 206.73 217.711 209.393M218.804 198.192C223.055 202.716 220.621 205.283 217.711 209.393M217.711 209.393C212.268 213.104 208.733 216.22 205.516 219.5M217.711 209.393C212.94 213.574 207.183 217.302 205.516 219.5M205.516 219.5C200.886 223.272 198.589 223.389 194.408 218.41M205.516 219.5C202.609 222.265 197.812 223.086 194.408 218.41M194.408 218.41C175.892 195.113 156.096 168.752 135.489 146.16M194.408 218.41C180.533 202.193 167.543 186.884 135.489 146.16" stroke="#343A40" stroke-width="2" stroke-linecap="round"/>
<path d="M86.7458 140.887C90.1399 140.758 92.5962 140.736 96.0456 140.84ZM86.7458 140.887C90.1043 140.698 93.4953 141.095 96.0456 140.84ZM81.1962 145.918C87.435 145.124 92.6301 146.559 100.412 145.812ZM81.1962 145.918C86.5626 145.647 91.2788 145.719 100.412 145.812ZM75.0235 150.944C86.3912 150.838 96.5537 150.967 104.773 150.788ZM75.0235 150.944C81.5587 150.661 89.1911 150.935 104.773 150.788ZM69.4739 155.976C84.4295 156.416 100.367 156.071 108.515 155.764ZM69.4739 155.976C83.0903 156.754 96.5502 156.482 108.515 155.764ZM63.9157 161.007C76.5352 162.194 89.2235 161.766 108.54 160.763ZM63.9157 161.007C74.4738 160.719 84.2083 160.811 108.54 160.763ZM58.3621 166.033C75.8143 165.618 92.6886 165.382 107.327 165.762ZM58.3621 166.033C69.2905 166.407 80.5956 165.499 107.327 165.762ZM52.8125 171.065C70.5455 171.407 88.2216 171.608 101.773 170.798ZM52.8125 171.065C64.0781 171.181 74.5125 170.155 101.773 170.798ZM46.6398 176.091C65.2714 176.593 83.0256 175.445 96.2197 175.824ZM46.6398 176.091C61.3936 175.912 76.0272 176.305 96.2197 175.824ZM41.0902 181.122C58.4024 180.906 78.4452 180.225 90.051 180.855ZM41.0902 181.122C55.5826 181.117 68.724 181.36 90.051 180.855ZM35.5366 186.149C55.9054 186.136 73.3502 185.153 84.4974 185.882ZM35.5366 186.149C49.737 186.177 64.8941 186.215 84.4974 185.882ZM29.9784 191.18C49.3552 191.363 65.8578 191.647 78.9437 190.909ZM29.9784 191.18C46.217 191.199 61.415 191.283 78.9437 190.909ZM24.4288 196.211C43.9646 196.586 62.654 195.848 73.3942 195.94ZM24.4288 196.211C38.1239 196.038 52.8875 196.391 73.3942 195.94ZM18.2561 201.237C32.0722 201.573 45.5411 202.391 67.836 200.971ZM18.2561 201.237C29.7932 201.296 41.305 200.588 67.836 200.971ZM12.0827 206.272C23.5962 206.494 33.7717 206.079 61.6673 206.002ZM12.0827 206.272C24.0384 206.651 35.9999 205.985 61.6673 206.002ZM12.7278 211.264C26.1982 210.966 38.6881 211.711 56.1137 211.028ZM12.7278 211.264C29.235 210.862 46.1835 210.086 56.1137 211.028ZM17.0891 216.24C25.0373 216.043 31.1252 216.638 50.5601 216.055ZM17.0891 216.24C25.5143 216.752 33.7489 215.379 50.5601 216.055ZM21.4551 221.211C30.0289 221.392 36.7378 220.389 45.0064 221.082ZM21.4551 221.211C28.5933 221.25 35.8972 221.101 45.0064 221.082ZM28.9222 226.172C30.9515 226.03 32.8289 226.678 36.3552 226.133ZM28.9222 226.172C31.5027 226.132 33.7966 225.971 36.3552 226.133ZM17.2354 208.436C17.6983 206.836 17.1407 206.083 17.1985 201.567ZM17.2354 208.436C16.9253 206.906 17.1721 205.39 17.1985 201.567ZM22.2199 214.032C22.542 207.111 22.0264 204.068 22.1323 197.164ZM22.2199 214.032C22.4044 208.705 21.9525 202.212 22.1323 197.164ZM27.2298 224.628C27.2755 215.042 28.5558 205.377 27.0702 192.766ZM27.2298 224.628C26.8113 214.065 27.4838 202.926 27.0702 192.766ZM32.1965 226.473C31.9247 214.176 31.9082 199.548 32.004 188.363ZM32.1965 226.473C32.2062 215.398 32.1621 204.886 32.004 188.363ZM37.1413 223.948C37.4479 208.461 36.8505 194.672 36.9419 183.965ZM37.1413 223.948C37.2407 212.843 37.2241 202.04 36.9419 183.965ZM42.0751 219.545C41.8935 207.484 41.7922 196.905 41.8757 179.562ZM42.0751 219.545C42.0341 204.274 42.0941 189.413 41.8757 179.562ZM47.013 215.147C46.2233 205.304 46.6585 198.399 46.8136 175.164ZM47.013 215.147C47.1883 201.838 47.0627 189.111 46.8136 175.164ZM51.9509 210.749C51.4794 197.938 51.2495 183.349 51.7474 170.761ZM51.9509 210.749C51.3208 198.286 51.635 186.301 51.7474 170.761ZM56.8847 206.346C57.0092 198.129 57.8249 187.836 56.6853 166.363ZM56.8847 206.346C57.3072 195.271 56.4105 184.017 56.6853 166.363ZM61.8226 201.948C62.2058 192.986 61.0973 185.844 61.6191 161.96ZM61.8226 201.948C61.0462 190.463 61.4225 178.331 61.6191 161.96ZM66.7564 197.545C66.5036 184.133 66.4033 168.964 66.557 157.561ZM66.7564 197.545C67.0064 186.83 66.8648 176.263 66.557 157.561ZM71.6943 193.147C72.3345 183.808 71.5375 176.739 71.4949 153.163ZM71.6943 193.147C71.3324 182.592 71.1964 170.573 71.4949 153.163ZM76.6328 188.74C76.2274 172.511 75.6482 159.803 76.4287 148.76ZM76.6328 188.74C75.8125 175.206 76.7902 161.644 76.4287 148.76ZM81.5707 184.341C80.3455 175.191 81.0055 163.906 81.3666 144.362ZM81.5707 184.341C81.5002 171.508 81.5201 160.273 81.3666 144.362ZM86.5045 179.939C85.7258 163.982 87.1981 147.579 86.3004 139.959ZM86.5045 179.939C87.0474 170.677 85.6083 161.234 86.3004 139.959ZM91.4424 175.54C90.7605 160.878 91.6104 145.617 91.2383 135.561ZM91.4424 175.54C91.366 162.321 91.3327 148.091 91.2383 135.561ZM96.3762 171.137C96.0315 158.813 96.1004 146.953 96.2056 136.782ZM96.3762 171.137C95.9489 162.486 97.0187 153.091 96.2056 136.782ZM101.314 166.739C100.779 160.303 100.782 153.225 101.172 139.252ZM101.314 166.739C100.559 158.753 101.302 151.7 101.172 139.252ZM106.252 162.341C106.445 158.245 107.046 151.901 106.161 144.844ZM106.252 162.341C105.956 158.138 106.122 154.864 106.161 144.844Z" stroke="#FAB005" stroke-linecap="round"/>
<path d="M96.2536 139.034C98.7123 142.319 102.751 146.092 106.666 150.981M96.2536 139.034C99.3688 142.627 103.419 146.839 106.666 150.981M96.2536 139.034C91.515 135.348 89.3612 133.672 85.1193 138.31M96.2536 139.034C92.7645 134.699 89.178 134.882 85.1193 138.31M106.666 150.981C110.561 155.356 109.788 158.427 105.948 162.21M106.666 150.981C111.351 155.496 108.471 159.036 105.948 162.21M105.948 162.21C79.4703 185.993 53.54 208.293 36.2313 223.955M105.948 162.21C84.2577 182.227 62.9349 201.444 36.2313 223.955M36.2313 223.955C32.294 229.047 29.1981 227.748 25.0929 223.227M36.2313 223.955C32.3 226.564 28.5302 227.89 25.0929 223.227M25.0929 223.227C20.7966 218.401 16.3061 213.249 14.6805 211.279M25.0929 223.227C21.567 218.509 17.1935 213.585 14.6805 211.279M14.6805 211.279C11.4782 206.241 11.5259 203.314 15.4024 200.055M14.6805 211.279C11.4175 205.888 13.1521 203.703 15.4024 200.055M15.4024 200.055C41.0095 176.362 67.7238 154.365 85.1193 138.31M15.4024 200.055C39.4446 179.594 63.3884 158.887 85.1193 138.31" stroke="#343A40" stroke-width="2" stroke-linecap="round"/>
<path d="M187.369 10.1754C191.764 9.17732 196.681 10.4917 196.667 10.3486ZM187.369 10.1754C190.983 10.4474 192.992 9.96484 196.667 10.3486ZM181.704 15.0742C186.831 16.0568 193.378 15.1389 200.916 15.4219ZM181.704 15.0742C186.588 15.1129 189.899 14.1739 200.916 15.4219ZM175.415 19.9532C183.183 19.822 188.675 22.7616 205.159 20.4992ZM175.415 19.9532C182.099 19.3932 190.216 21.2398 205.159 20.4992ZM169.75 24.8519C175.742 27.0511 188.196 25.8057 208.784 25.5615ZM169.75 24.8519C178.66 24.4807 186.158 26.2723 208.784 25.5615ZM164.076 29.7499C182.022 31.9897 198.892 33.2072 208.693 30.5602ZM164.076 29.7499C175.428 31.48 189.293 30.9497 208.693 30.5602ZM158.407 34.6439C177.956 36.4583 197.461 36.0205 207.363 35.5288ZM158.407 34.6439C169.392 34.8913 181.502 35.8506 207.363 35.5288ZM152.741 39.5426C168.876 42.4732 184.608 40.9112 201.693 40.4316ZM152.741 39.5426C163.998 39.2022 172.305 40.1964 201.693 40.4316ZM146.453 44.4216C158.59 44.1282 164.334 44.5004 196.024 45.3255ZM146.453 44.4216C163.123 43.4616 178.794 45.3489 196.024 45.3255ZM140.788 49.3203C157.511 48.9505 170.424 46.5352 189.739 50.2093ZM140.788 49.3203C156.149 49.9871 171.377 49.2009 189.739 50.2093ZM135.118 54.2143C150.115 52.7201 168.844 55.0072 184.07 55.1032ZM135.118 54.2143C154.119 55.0577 173.155 55.1548 184.07 55.1032ZM129.444 59.1123C150.368 60.2061 164.9 57.9877 178.401 59.9972ZM129.444 59.1123C147.473 58.7563 166.525 57.8215 178.401 59.9972ZM123.779 64.0111C136.824 67.1065 150.534 65.6312 172.735 64.896ZM123.779 64.0111C136.658 64.9897 151.869 64.4059 172.735 64.896ZM117.491 68.89C136.525 68.2552 151.226 69.9765 167.061 69.794ZM117.491 68.89C127.905 68.5768 139.369 69.5364 167.061 69.794ZM111.202 73.7778C124.502 73.1131 138.999 73.1976 160.777 74.6777ZM111.202 73.7778C122.574 74.7248 132.999 72.9846 160.777 74.6777ZM111.73 78.7826C122.982 78.1935 138.231 80.0875 155.108 79.5717ZM111.73 78.7826C127.695 79.0861 146.105 79.5889 155.108 79.5717ZM115.974 83.86C127.256 84.4753 137.52 82.9691 149.438 84.4656ZM115.974 83.86C124.591 82.8153 132.411 83.9349 149.438 84.4656ZM120.222 88.9333C130.342 87.4587 140.037 90.727 143.769 89.3596ZM120.222 88.9333C127.337 89.6222 132.088 88.6247 143.769 89.3596ZM125.089 94.0216C124.858 93.5487 126.993 93.6362 135.003 94.2049ZM125.089 94.0216C128.672 93.3506 131.654 94.2138 135.003 94.2049ZM116.302 76.0619C116.117 74.2627 115.197 72.7664 116.426 69.1946ZM116.302 76.0619C115.606 74.1154 115.845 72.447 116.426 69.1946ZM121.154 81.7741C123.947 76.0262 121.808 67.4682 121.461 64.9096ZM121.154 81.7741C121.56 78.4087 121.066 73.1142 121.461 64.9096ZM125.915 92.4851C126.459 83.9921 128.15 69.144 126.5 60.6294ZM125.915 92.4851C126.661 84.245 126.73 77.9451 126.5 60.6294ZM130.837 94.4473C131.452 88.1514 131.801 76.1555 131.535 56.3443ZM130.837 94.4473C131.717 86.738 129.871 78.0952 131.535 56.3443ZM135.839 92.0397C135.358 79.3359 135.376 69.9182 136.574 52.0641ZM135.839 92.0397C136.316 78.3965 136.868 63.0926 136.574 52.0641ZM140.875 87.7546C141.026 77.0583 139.968 60.3609 141.609 47.779ZM140.875 87.7546C141.256 75.2428 142.459 62.7549 141.609 47.779ZM145.914 83.4744C144.195 72.3372 144.788 62.629 146.648 43.4988ZM145.914 83.4744C145.52 68.9203 146.412 55.5535 146.648 43.4988ZM150.953 79.1941C152.478 63.2315 151.663 46.2055 151.684 39.2137ZM150.953 79.1941C150.086 71.2323 149.661 62.4494 151.684 39.2137ZM155.988 74.9091C154.762 61.7668 156.015 49.7579 156.723 34.9335ZM155.988 74.9091C155.452 60.0763 157.062 46.7954 156.723 34.9335ZM161.027 70.6288C159.91 55.8465 159.634 41.9591 161.758 30.6485ZM161.027 70.6288C161.624 54.5617 161.836 41.6312 161.758 30.6485ZM166.062 66.3438C167.432 52.7445 168.244 40.049 166.797 26.3682ZM166.062 66.3438C166.134 56.8643 166.666 48.397 166.797 26.3682ZM171.101 62.0636C169.288 48.7982 172.384 33.0814 171.836 22.0879ZM171.101 62.0636C171.175 52.2074 170.646 45.0117 171.836 22.0879ZM176.141 57.7745C175.056 43.7311 176.565 26.6496 176.871 17.8029ZM176.141 57.7745C176.188 50.2308 175.726 39.4091 176.871 17.8029ZM181.18 53.4943C183.871 39.6351 180.453 24.7594 181.91 13.5227ZM181.18 53.4943C182.502 38.9904 181.856 23.6644 181.91 13.5227ZM186.215 49.2092C186.182 42.1729 183.953 29.3894 186.946 9.23762ZM186.215 49.2092C185.019 40.9964 184.624 32.5709 186.946 9.23762ZM191.255 44.929C188.37 28.4864 188.739 13.2062 191.985 4.95737ZM191.255 44.929C191.375 28.9304 191.845 15.6592 191.985 4.95737ZM196.29 40.6439C196.518 31.032 195.462 19.4082 196.885 8.1683ZM196.29 40.6439C195.953 32.2103 195.182 26.3591 196.885 8.1683ZM201.329 36.3637C201.124 31.3387 200.1 21.0969 201.829 8.88191ZM201.329 36.3637C201.823 29.1346 200.048 21.8417 201.829 8.88191ZM206.368 32.0834C207.529 27.836 207.501 25.0973 206.686 14.5902ZM206.368 32.0834C205.568 28.2696 207.586 22.923 206.686 14.5902Z" stroke="#FAB005" stroke-linecap="round"/>
<path d="M196.917 8.54725C199.643 12.7315 204.369 18.1754 207.047 20.7369M196.917 8.54725C200.8 11.6235 203.039 17.9865 207.047 20.7369M196.917 8.54725C194.699 5.55653 189.219 6.78655 185.803 7.56109M196.917 8.54725C194.877 6.43267 190.845 4.15027 185.803 7.56109M207.047 20.7369C209.012 25.9624 211.816 28.4595 206.067 31.9451M207.047 20.7369C210.816 26.0603 207.643 27.0781 206.067 31.9451M206.067 31.9451C190.235 47.8179 175.875 60.7525 134.929 92.0249M206.067 31.9451C189.042 45.7697 171.273 62.5615 134.929 92.0249M134.929 92.0249C128.74 95.6222 127.19 92.4912 123.811 91.034M134.929 92.0249C129.653 94.2974 129.14 93.5822 123.811 91.034M123.811 91.034C118.89 85.861 114.678 79.9661 113.681 78.8444M123.811 91.034C121.165 86.6039 116.56 84.284 113.681 78.8444M113.681 78.8444C109.848 77.4621 110.553 72.4336 114.665 67.6409M113.681 78.8444C111.313 72.7538 110.809 70.3764 114.665 67.6409M114.665 67.6409C136.624 51.6865 157.269 30.715 185.803 7.56109M114.665 67.6409C140.15 46.11 165.147 26.1634 185.803 7.56109" stroke="#343A40" stroke-width="2" stroke-linecap="round"/>
<path d="M27.967 13.7929C56.3425 48.8391 169.888 189.23 198.456 224.251M29.1633 15.2237C57.7743 50.045 171.506 188.087 199.825 222.989" stroke="#343A40" stroke-width="2" stroke-linecap="round"/>
<path d="M11.4353 201.036C44.4099 172.544 176.209 58.5332 209.177 30.0664M10.4932 200.536C43.6971 171.813 177.108 57.5585 210.473 28.9854" stroke="#343A40" stroke-width="2" stroke-linecap="round"/>
<path d="M108.624 105.968C111.06 105.35 115.126 105.15 117.531 106.324C119.936 107.493 122.124 110.305 123.06 112.991C123.996 115.678 124.07 119.296 123.134 122.426C122.204 125.556 119.731 130.274 117.463 131.78C115.194 133.286 112.033 132.236 109.51 131.467C106.994 130.705 104.136 129.393 102.339 127.181C100.541 124.969 98.8493 121.183 98.7129 118.202C98.5828 115.216 98.1985 111.323 101.539 109.286C104.874 107.249 115.033 105.169 118.733 105.987C122.44 106.806 124.051 113.666 123.748 114.197" fill="#FAB005"/>
<path d="M118.082 107.374C120.351 108.405 121.219 110.192 122.26 112.691C123.308 115.191 124.789 119.471 124.355 122.37C123.921 125.263 121.919 128.218 119.644 130.08C117.376 131.942 113.682 133.854 110.725 133.535C107.762 133.223 103.628 130.48 101.886 128.181C100.139 125.888 100.213 122.72 100.25 119.758C100.287 116.803 100.907 112.654 102.122 110.442C103.337 108.23 104.143 106.093 107.533 106.487C110.917 106.874 119.911 109.936 122.44 112.785C124.962 115.628 122.681 123.351 122.681 123.57" stroke="#343A40" stroke-width="2" stroke-linecap="round" stroke-dasharray="8 12"/>
</svg>
